<?xml version="1.0" encoding="iso-8859-1"?>
<!-- Generator: Adobe Illustrator 19.0.0, SVG Export Plug-In . SVG Version: 6.00 Build 0)  -->
<svg version="1.1" id="Capa_1" xmlns="http://www.w3.org/2000/svg" xmlns:xlink="http://www.w3.org/1999/xlink" x="0px" y="0px"
	 viewBox="0 0 485.726 485.726" style="enable-background:new 0 0 485.726 485.726;" xml:space="preserve">
<g>
	<g>
		<path d="M153.893,432.143c-36.3-15.4-61.8-38.4-66.7-29.3c-1.9,3.9,1.8,12.1,10.4,23.4c4.8,5.1,10.7,11.1,18.1,17.2
			c3.9,2.8,8,5.6,12.4,8.6c2.2,1.4,4.5,3,6.9,4.4c2.5,1.2,5,2.5,7.6,3.8c18.4,9.8,38.6,15.9,59,20.6c10.3,1.6,20.7,3.8,31.2,4.1
			l7.9,0.5c2.6,0.2,5.3,0.4,7.9,0.2l15.8-0.5c21-1.7,42.1-5.2,61.9-12.5c10.2-3,19.6-7.9,29.3-12.3c4.8-2.2,9.2-5.2,13.8-7.8
			c4.5-2.8,9.2-5.2,13.5-8.6l10.6-7.9l5.3-4l4.4-4l8.8-8l2.2-2l1.1-1l0.5-0.5l0.7-0.6l0.1-0.1l0.1-0.1l0.3-0.3l4.3-4.7
			c5.6-6.4,11.6-12.4,16.4-19.5c5-6.9,10.2-13.6,14.2-21.1c17.4-29.1,28.4-62,32.2-95.5c3.8-33.5,0.8-67.9-9.6-99.9l-4.3-11.9
			c-1.5-3.9-2.7-8-4.7-11.7l-5.4-11.4l-2.7-5.7c-1-1.8-2.1-3.6-3.2-5.4l-6.5-10.8c-1.1-1.8-2.1-3.6-3.4-5.3l-3.9-5.2
			c-5.2-6.8-10.3-14.2-15.8-19.5c-18.4-23.2-42-43.6-68.8-58.4c-26.9-15.1-57-24.6-87.8-28s-62.5-0.8-92.5,7.9l-22.2,7.6
			c-7.2,3.1-14.3,6.5-21.4,9.7c-6.9,3.8-13.6,7.8-20.3,11.8c-6.7,4.4-13.2,9.5-19.7,14.3l-2.4,1.8l-2,1.8l-4,3.6l-8,7.2l-2,1.8
			l-1,0.9l-1,0.9l-0.2,0.3l-0.6,0.8l-3.9,4.3l-7.9,8.7l-3.9,4.4c-1.2,1.5-2.3,3.1-3.5,4.7l-7,9.5c-4.9,6.2-8.5,13.2-12.6,19.9
			c-15.5,27.3-25.6,57.6-29.7,88.6s-2.3,62.8,5.3,93.1c1,3.8,1.7,7.7,3,11.3l3.8,11.1c1.3,3.7,2.4,7.4,4,11l4.9,10.7
			c1.7,3.5,3.2,7.2,5,10.6l5.9,10.2l5.9,10.1l7.1,9.9c6.9,10.4,20.2,19,25.4,21.3c10.4,4.1,4.5-8.1-5.9-25
			c-16.3-28.7-28.4-61.9-33.4-97.5c-0.9-4.4-0.8-9-1.3-13.5l-0.6-6.8l-0.3-3.4v-3.4c0-4.5,0-9.1,0.1-13.7v-3.4l0.3-3.4l0.6-6.9
			c0.4-9.2,2.4-18.3,3.9-27.4c0.7-4.6,2.3-9,3.4-13.5c1.3-4.5,2.2-9,4-13.3c6.8-21.4,17.9-41.1,31.2-58.9c3.5-4.3,6.5-9.1,10.5-13
			l5.7-6.1l2.8-3l1.4-1.5l0.7-0.8l0.4-0.4l0.1-0.1l13.1-11.5l3.6-2.9c1.1-1,2.2-1.6,3.3-2.4l6.6-4.6l6.5-4.6
			c2.2-1.5,4.8-2.8,7.1-4.1l7.2-4.1c2.4-1.4,4.8-2.8,7.3-3.8l15.1-6.7c5.2-1.8,10.5-3.5,15.7-5.3c21.1-6.2,43.1-9.3,65.1-9
			c22,0.4,43.8,4.6,64.5,11.6l7.7,2.8l3.9,1.4l3.7,1.7l14.9,7l14.1,8.4c1.2,0.7,2.4,1.4,3.5,2.1l3.3,2.4l6.6,4.9l6.6,4.8l6.1,5.5
			l6.1,5.5l3.1,2.7l0.3,0.2l0.6,0.6l1.5,1.7l12.1,13.3c3.5,4.3,6.3,8.5,9.5,12.7c12.3,17.5,22.6,37.6,29.4,58.6
			c5.7,21.1,8,43,7.3,64.7c-2,69.2-41.1,135.2-100,170.4l-11,6.6l-11.6,5.4l-5.8,2.8c-2,0.8-4,1.5-6,2.2l-12.1,4.3
			c-16.5,4.6-33.3,8.5-50.5,9.1c-8.6,0.9-17.2,0.3-25.8,0.1c-4.3,0.1-8.5-0.9-12.8-1.3c-4.2-0.6-8.6-0.8-12.8-1.8
			c-8.4-2-17-3.3-25.1-6.3c-4.1-1.4-8.3-2.5-12.3-4L153.893,432.143z"/>
		<path d="M259.493,174.743c-4.9-1-9,0.3-12.1,2.2c-10.3,6.4-14.8,14.1-16,21.9c-1.4,8.9-3.1,17.9-4.1,26.9c-0.1,0-0.1,0-0.2,0
			c-14.9-1.7-29.9-2.2-44.7,1.9c-4.2,1.2-7.7,5.8-7.4,14.8c0.3,8.3,3.3,14.4,7.6,15.3c7.8,1.7,15.6,3.6,23.5,3.4
			c6.9-0.2,13.8-0.9,20.7-1.7c-0.2,1.1-0.3,2.2-0.5,3.3c-1.7,14.9-2.2,29.9,1.9,44.7c1.2,4.2,5.8,7.7,14.8,7.4
			c8.3-0.3,14.4-3.3,15.3-7.6c1.7-7.8,3.6-15.6,3.4-23.5c-0.2-6.9-0.9-13.9-1.7-20.8c17.2,3.3,34.7,0,52,1.8c1,0.1,2.6-3.4,3.1-5.8
			c1-4.9-0.3-9-2.2-12.1c-6.4-10.3-14.1-14.8-21.9-16c-9-1.4-17.9-3.1-26.9-4.1c2.4-16.2-0.4-32.6,1.3-48.9
			C265.393,176.743,261.993,175.243,259.493,174.743z"/>
	</g>
</g>
<g>
</g>
<g>
</g>
<g>
</g>
<g>
</g>
<g>
</g>
<g>
</g>
<g>
</g>
<g>
</g>
<g>
</g>
<g>
</g>
<g>
</g>
<g>
</g>
<g>
</g>
<g>
</g>
<g>
</g>
</svg>
