<?xml version="1.0" encoding="iso-8859-1"?>
<!-- Generator: Adobe Illustrator 19.0.0, SVG Export Plug-In . SVG Version: 6.00 Build 0)  -->
<svg version="1.1" id="Capa_1" xmlns="http://www.w3.org/2000/svg" xmlns:xlink="http://www.w3.org/1999/xlink" x="0px" y="0px"
	 viewBox="0 0 482.934 482.934" style="enable-background:new 0 0 482.934 482.934;" xml:space="preserve">
<g>
	<g>
		<path d="M411.667,0.328c-4.9-1.1-9,0.7-12,3.4c-10,8.8-14.1,19.2-14.9,29.6c-0.6,8.1-1.4,16.2-2,24.3
			c-24.1-21.3-53.4-38-85.2-45.9c-53.9-13.3-111.8-5.1-160,20.3c-5.7,2.2-11.5,4.4-17.2,7c-5.6,3-11.3,6.1-16.9,9.3
			c-3,1.6-5.2,3.3-7.6,5l-7.1,5.1l-3.5,2.6l-1.8,1.2l-0.9,0.6l-0.2,0.2l-0.1,0.1l-0.8,0.7l-0.4,0.4l-7.1,6.3
			c-18.7,16.9-34.5,37.5-45.9,60.3c-11.5,22.8-19.4,47.4-22.9,72.7c-0.7,6.3-1.8,12.6-2,19l-0.6,9.5v9.5c-0.2,6.4,0.4,12.7,0.8,19.1
			c0.4,6.3,1.5,13.2,2.2,19.6c0.7,4.1,5.5,9.7,8.3,11.3c5.6,3,8.6-3,10-11.4c5-27.8,9.4-57.3,17-86.5c9.3-35.1,28.4-66.8,53.7-91.8
			c3.1-3.2,6.5-6,9.7-9.1l1.2-1.1l0.2-0.2l0.4-0.3l2.9-2.2l5.7-4.5l5.7-4.5c0.9-0.7,1.9-1.6,2.8-2.2l2.7-1.7l10.6-6.9
			c15-8.7,31.1-17,48.1-22.2c8.5-2.6,17.4-3.1,26-4.7c27.7-3.2,55.8-0.6,82.5,6.7c21.1,5.8,41.3,14.8,60.2,26.3
			c-12.2,0.3-24.3,1.5-36.3,4.5c-5.5,1.4-10,6.1-9.3,15.2c0.7,8.3,4.9,14.2,10.7,15c10.4,1.4,20.8,2.9,31.2,2.2
			c16.6-1,33.2-3.6,49.8-5.6l2,0.7c4.1,1.3,8.6-0.8,10.1-5l3.1-8.7l0.2-0.7l0.1-0.2l0,0l0,0c0-1.1,0-0.3,0-0.5v-0.1l0.1-0.3l0.4-1.4
			l0.7-2.8c0.5-1.8,0.9-3.7,1.2-5.5c0.7-3.7,1.2-7.4,1.5-11.1c0.6-7.4,0.6-14.8,0.4-22.2c-0.5-14.8-2-29.6-1.4-44.4
			C417.767,2.828,414.167,0.828,411.667,0.328z"/>
		<path d="M387.067,430.028l7.1-5.1l3.5-2.6l1.8-1.3l0.9-0.6l0.2-0.2l0.1-0.1l0.8-0.7l0.4-0.4l7.1-6.3
			c18.7-16.9,34.5-37.5,45.9-60.3c11.5-22.8,19.4-47.4,22.9-72.7c0.7-6.3,1.8-12.6,2-19l0.6-9.5v-9.5c0.2-6.4-0.4-12.7-0.8-19.1
			c-0.4-6.3-1.5-13.2-2.2-19.6c-0.7-4.1-5.5-9.7-8.3-11.3c-5.6-3-8.6,3-10,11.4c-5,27.8-9.4,57.3-17,86.5
			c-9.3,35.1-28.4,66.8-53.7,91.8c-3.1,3.2-6.5,6-9.7,9.1l-1.2,1.1l-0.2,0.2l-0.4,0.3l-2.9,2.2l-5.7,4.5l-5.7,4.5
			c-0.9,0.7-1.9,1.6-2.8,2.2l-2.7,1.7l-10.6,6.9c-15,8.7-31.1,17-48.1,22.2c-8.5,2.6-17.4,3.1-26,4.7c-27.7,3.2-55.8,0.6-82.5-6.7
			c-22.5-6.2-43.9-15.9-63.7-28.5c14.9-1.3,29.7-3.6,44.6-3.8c1.3,0,3.1-3.7,3.6-6.2c0.9-5-1.2-8.9-4-11.8
			c-9.3-9.5-19.9-13.1-30.4-13.4c-20.3-0.5-40.7-2-60.9,0.3l-1,0.1l0,0c-10.1,1.2-17.4,10.3-16.2,20.5c0.6,4.9,1.3,9.7,2.4,14.5
			c-0.1,3.1-0.3,6.3-0.2,9.4c0.1,19.8,1.4,39.6,7.2,58.8c1.7,5.5,6.6,9.7,15.7,8.5c8.2-1.1,13.9-5.6,14.4-11.4
			c0.8-10.4,1.8-21,0.6-31.2c-0.6-5-1.3-10-2.1-15.1c24.2,21.5,53.7,38.3,85.6,46.3c53.9,13.3,111.8,5.1,160-20.3
			c5.7-2.2,11.5-4.3,17.2-7c5.6-3,11.3-6.1,16.9-9.3C382.467,433.428,384.667,431.728,387.067,430.028z"/>
	</g>
</g>
<g>
</g>
<g>
</g>
<g>
</g>
<g>
</g>
<g>
</g>
<g>
</g>
<g>
</g>
<g>
</g>
<g>
</g>
<g>
</g>
<g>
</g>
<g>
</g>
<g>
</g>
<g>
</g>
<g>
</g>
</svg>
