<?xml version="1.0" encoding="iso-8859-1"?>
<!-- Generator: Adobe Illustrator 19.0.0, SVG Export Plug-In . SVG Version: 6.00 Build 0)  -->
<svg version="1.1" id="Capa_1" xmlns="http://www.w3.org/2000/svg" xmlns:xlink="http://www.w3.org/1999/xlink" x="0px" y="0px"
	 viewBox="0 0 488.8 488.8" style="enable-background:new 0 0 488.8 488.8;" xml:space="preserve">
<g>
	<g>
		<path d="M421.142,4.2c-1.9-0.7-3.9-1.1-5.8-1.6c-2-0.5-3.8-1-6-1.3l-5.2-0.7l-2.6-0.3l-2-0.1l-4-0.1l-2.9-0.1l-2.4,0.1
			c-6.4,0.3-12.8,1.2-19,2.9c-12.4,3.3-24,9.3-33.8,17.4c-19.8,16.1-31.6,40.4-32.4,65.6c-2.1,10.5-2,22.5,0.7,33.8
			c0.4,1.8,1,3.5,1.5,5.3c-6-0.3-11.7,0.8-17,2.7c-23.7,8.7-48.1,16-69.3,30.2c-3,1.1-5.9,2.1-8.9,3.2c-17.5,7-34.6,15-49.8,26.5
			c-3.6-5.1-7.6-9.9-12.3-14.2c-5.9-5.3-12.4-10.1-19.6-13.6c-3.5-1.9-7.3-3.2-11.1-4.7c-1.9-0.7-3.9-1.1-5.8-1.6
			c-2-0.5-3.8-1-6-1.3l-5.2-0.7l-2.6-0.3l-2-0.1l-4-0.1l-2.9-0.1l-2.4,0.1c-6.4,0.3-12.8,1.2-19,2.9c-12.4,3.3-24,9.3-33.8,17.4
			c-19.8,16.1-31.6,40.4-32.4,65.6c-2.1,10.5-2,22.5,0.7,33.8s7.8,22.3,15,31.7c7.2,9.5,16.4,17.6,26.9,23.5l8.1,4.1
			c2.8,1.1,5.7,2.2,8.5,3.2c2.9,0.9,5.9,1.6,8.8,2.4c3.1,0.7,6.6,1.1,9.9,1.6l1.2,0.2l0.9,0.1l1.8,0.1l3.6,0.2h0.9h0.5h1.1h0.1h0.3
			l2.3-0.1l4.5-0.2c6-0.5,12.1-1.5,17.9-3.2c11.7-3.3,22.7-8.9,32.3-16.2c8.8-6.8,16.3-15.1,22.4-24.5c3.1,3.9,6.7,7.1,10.6,9.6
			c21.2,13.8,41.7,28.9,65.7,37.3c2.6,1.7,5.2,3.5,7.9,5.1c16.5,10.1,33.5,19.1,52.3,24.3c-1.4,5.9-2.3,11.9-2.5,17.9
			c-2.1,10.5-2,22.5,0.7,33.8s7.8,22.3,15,31.7c7.2,9.5,16.4,17.6,26.9,23.5l8.1,4.1c2.8,1.1,5.7,2.2,8.5,3.2
			c2.9,0.9,5.9,1.6,8.8,2.4c3.1,0.7,6.6,1.1,9.9,1.6l1.2,0.2l0.9,0.1l1.8,0.1l3.6,0.2h0.9h0.5h1.1h0.1h0.3l2.3-0.1l4.5-0.2
			c6-0.5,12.1-1.5,17.9-3.2c11.7-3.3,22.7-8.9,32.3-16.2c9.6-7.4,17.7-16.6,24-26.9c1.7-2.5,3-5.2,4.3-8c1.4-2.7,2.5-5.5,3.6-8.3
			c1.2-2.8,2-5.7,2.8-8.6l1.2-4.4l0.9-5c1-5.5-2.4-10.3-4.7-12.3c-4.7-3.6-8.9,0.5-12.5,6.9c-6.3,10.6-13.6,19.7-21.6,27.5
			c-8.2,7.7-17.3,14.2-27.2,18.6c-5.9,2.8-12.3,4.3-18.7,4.9c-1.6,0.1-3.2,0.4-4.8,0.3h-2.4h-1.2h-0.6l0,0
			c-3.9-0.4-8.3-0.7-10.3-1.5c-1.3-0.3-2.6-0.6-4.2-1.1c-1.5-0.5-3-0.8-4.4-1.5l-4.3-1.8l-4.1-2.2c-5.3-3.2-10.1-7.1-14.2-11.6
			s-7.4-9.7-10-15.1s-4.3-11.2-5.1-17.2l-0.1-2.6l-0.1-2.3l-0.1-2.3l-0.1-1.1l0,0V393l0.2-6l0.5-3.9c0.8-5.5,2.6-11.7,5.1-17.2
			c3.3-5.1,7.4-9.7,11.8-13.6c14.3-12.6,34.3-17.2,52.3-12.8c9,2.1,17.5,6.2,24.7,12.3c7.4,5.9,13.3,13.7,17.4,22.5
			c1.3,2.5,2.2,5,3.6,7.2c1,2.3,2.4,4.4,3.8,6.2c2.6,3.6,6.1,6.1,10.6,5.7c4.1-0.5,7.5-3.3,9.8-8.5c0.9-2.6,1.6-5.7,1.8-9.3
			c-0.1-3.5-0.3-7.6-1.7-11.7c-2-7.5-5.5-14.5-9.4-21.3c-4.2-6.6-9.1-12.8-15-18.2c-5.9-5.3-12.4-10.1-19.6-13.6
			c-3.5-1.9-7.3-3.2-11.1-4.7c-1.9-0.7-3.9-1.1-5.8-1.6c-2-0.5-3.8-1-6.1-1.3l-5.2-0.7l-2.6-0.3l-2-0.1l-4-0.1l-2.9-0.1l-2.4,0.1
			c-6.4,0.3-12.8,1.2-19,2.9c-12.4,3.3-24,9.3-33.8,17.4c-6.9,5.6-12.8,12.3-17.6,19.6c-7.7-5.6-15.5-11.2-24-15.2
			c-15.1-7.1-30.9-12.8-46.4-19.1c-18.6-20.1-43.4-28.8-66.4-40.7c0.1-0.3,0.2-0.5,0.2-0.8l1.2-4.4l0.9-5c1-5.5-2.4-10.3-4.7-12.3
			c-4.7-3.6-8.9,0.5-12.5,6.9c-6.3,10.6-13.6,19.7-21.6,27.5c-8.2,7.7-17.3,14.2-27.2,18.6c-5.9,2.8-12.3,4.3-18.7,4.9
			c-1.6,0.1-3.2,0.4-4.8,0.3h-2.4h-1.2h-0.6l0,0c-3.9-0.4-8.3-0.7-10.3-1.5c-1.3-0.3-2.6-0.6-4.2-1.1c-1.5-0.5-3-0.8-4.4-1.5
			l-4.3-1.8l-4.1-2.2c-5.3-3.2-10.1-7.1-14.2-11.6s-7.4-9.7-10-15.1s-4.3-11.2-5.1-17.2l-0.4-2.2l-0.1-2.3l-0.1-2.3l-0.1-1.1l0,0
			v-0.5l0.2-6l0.5-3.9c0.8-5.5,2.6-11.7,5.1-17.2c3.3-5.1,7.4-9.7,11.8-13.6c14.3-12.6,34.3-17.2,52.3-12.8
			c9,2.1,17.5,6.2,24.7,12.3c7.4,5.9,13.3,13.7,17.4,22.5c1.3,2.5,2.2,5,3.6,7.2c1,2.3,2.4,4.4,3.8,6.2c2.6,3.6,6.1,6.1,10.6,5.7
			c4.1-0.5,7.5-3.3,9.8-8.5c0.9-2.6,1.6-5.7,1.8-9.3c-0.1-2.8-0.2-6-1-9.2c9.5-2.9,19-5.8,27.7-10.4c14.8-7.8,28.8-17,43.1-25.6
			c27.8-2.8,49.9-18,73.8-29.4c0.4,0.5,0.7,1,1,1.5c7.2,9.5,16.4,17.6,26.9,23.5l8.1,4.1c2.8,1.1,5.7,2.2,8.5,3.2
			c2.9,0.9,5.9,1.6,8.8,2.4c3.1,0.7,6.6,1.1,9.9,1.6l1.2,0.2l0.9,0.1l1.8,0.1l3.6,0.2h0.9h0.5h1.1h0.1h0.3l2.3-0.1l4.5-0.2
			c6-0.5,12.1-1.5,17.9-3.2c11.7-3.3,22.7-8.9,32.3-16.2c9.6-7.4,17.7-16.6,24-26.9c1.7-2.5,3-5.2,4.3-8c1.4-2.7,2.5-5.5,3.6-8.3
			c1.2-2.8,2-5.7,2.8-8.6l1.2-4.4l0.9-5c1-5.5-2.4-10.3-4.7-12.3c-4.7-3.6-8.9,0.5-12.5,6.9c-6.3,10.6-13.6,19.7-21.6,27.5
			c-8.2,7.7-17.3,14.2-27.2,18.6c-5.9,2.8-12.3,4.3-18.7,4.9c-1.6,0.1-3.2,0.4-4.8,0.3h-2.4h-1.2h-0.6l0,0
			c-3.9-0.4-8.3-0.7-10.3-1.5c-1.3-0.3-2.6-0.6-4.2-1.1c-1.5-0.5-3-0.8-4.4-1.5l-4.3-1.8l-4.1-2.2c-5.3-3.2-10.1-7.1-14.2-11.6
			c-4.1-4.5-7.4-9.7-10-15.1c-2.6-5.4-4.3-11.2-5.1-17.2l-0.4-2.2l-0.1-2.3l-0.1-2.3l-0.1-1.1l0,0v-0.5l0.2-6l0.5-3.9
			c0.8-5.5,2.6-11.7,5.1-17.2c3.3-5.1,7.4-9.7,11.8-13.6c14.3-12.6,34.3-17.2,52.3-12.8c9,2.1,17.5,6.2,24.7,12.3
			c7.4,5.9,13.3,13.7,17.4,22.5c1.3,2.5,2.2,5,3.6,7.2c1,2.3,2.4,4.4,3.8,6.2c2.6,3.6,6.1,6.1,10.6,5.7c4.1-0.5,7.5-3.3,9.8-8.5
			c0.9-2.6,1.6-5.7,1.8-9.3c-0.1-3.5-0.3-7.6-1.7-11.7c-2-7.5-5.5-14.5-9.4-21.3c-4.2-6.6-9.1-12.9-15-18.3
			c-5.9-5.3-12.4-10.1-19.6-13.6C428.742,6.9,424.941,5.6,421.142,4.2z"/>
	</g>
</g>
<g>
</g>
<g>
</g>
<g>
</g>
<g>
</g>
<g>
</g>
<g>
</g>
<g>
</g>
<g>
</g>
<g>
</g>
<g>
</g>
<g>
</g>
<g>
</g>
<g>
</g>
<g>
</g>
<g>
</g>
</svg>
